# xmcd
#
# Track frame offsets: 
#        150
#        24376
#        44982
#        60237
#        76441
#        105389
#        125138
#        148544
#        160728
#        177994
#        203626
#        223162
#        240729
#        259637
#        280118
#        300099
#
# Disc length: 4270 seconds
#
# Revision: 0
# Processed by: cddbd v1.5.2PL0 Copyright (c) Steve Scherf et al.
# Submitted via: ExactAudioCopy v0.99pb5
#
DISCID=db10ac10
DTITLE=Various Artist - Z³ote przeboje Sceny Country 2
DYEAR=1999
DGENRE=Country
TTITLE0=Colorado band - Co jest grane
TTITLE1=Mariusz Kalaga - Moje drzewo i park
TTITLE2=Magda Anio³ - Ostatni Raz
TTITLE3=Lonstar - Legenda europejskiego kowboja
TTITLE4=Cezary Makiewicz - Czu³em, ¿e jetes piêkna
TTITLE5=Fair play - Country girl
TTITLE6=Colorado band - Taka ma³a stacja
TTITLE7=Coach - ¯ycie jak Rock'n'Roll
TTITLE8=Zayazd - Ty moje szczêscie
TTITLE9=Lonstar - Tym co nie zasnêli
TTITLE10=Johnny walker - Gdybys nie by³ nikim
TTITLE11=Mariusz Kalaga - Czasem to nowa mi³osæ
TTITLE12=Whiskey river - Piosenka o moim domu
TTITLE13=Zayazd - Hej, jad¹, jad¹ tu
TTITLE14=Coach - Ballada o spe³nionym snie
TTITLE15=Johnny walker - Amerykanin w Gi¿ycku
EXTD=
EXTT0=
EXTT1=
EXTT2=
EXTT3=
EXTT4=
EXTT5=
EXTT6=
EXTT7=
EXTT8=
EXTT9=
EXTT10=
EXTT11=
EXTT12=
EXTT13=
EXTT14=
EXTT15=
PLAYORDER=
